<?xml version="1.0" encoding="utf-8"?>
<!-- Generator: Adobe Illustrator 24.0.2, SVG Export Plug-In . SVG Version: 6.00 Build 0)  -->
<svg version="1.1" id="Layer_1" xmlns="http://www.w3.org/2000/svg" xmlns:xlink="http://www.w3.org/1999/xlink" x="0px" y="0px"
	 viewBox="0 0 555.5 303.5" style="enable-background:new 0 0 555.5 303.5;" xml:space="preserve">
<style type="text/css">
	.st0{fill:#3A3D49;stroke:#000000;stroke-width:1.1545;stroke-miterlimit:10;}
	.st1{fill:#282B32;}
	.st2{fill:#EBEAEF;}
	.st3{fill:#2B2B2B;stroke:#EBEBEC;stroke-width:7.1614;stroke-miterlimit:10;}
	.st4{fill:#1F2123;stroke:#EBEBEC;stroke-width:6;stroke-miterlimit:10;}
	.st5{fill:#EBEBEC;}
	.st6{fill:#F2F2F3;}
	.st7{fill:#F15B3C;}
	.st8{stroke:#000000;stroke-width:0.1144;stroke-miterlimit:10;}
</style>
<path class="st0" d="M541.2,300.9h-418H11.9c-5.4,0-9.7-4.3-9.7-9.7V13.3c0-5.4,4.3-9.7,9.7-9.7h529.3c5.4,0,9.7,4.3,9.7,9.7v277.9
	C550.9,296.5,546.6,300.9,541.2,300.9z"/>
<g>
	<path class="st1" d="M411.9,229.8H143l-26.6,70l-2,1.1h321.1L411.9,229.8z M159.8,295.6c-5.5,0-9.9-4.4-9.9-9.9
		c0-5.5,4.4-9.9,9.9-9.9s9.9,4.4,9.9,9.9C169.7,291.2,165.3,295.6,159.8,295.6z M186.5,262.2c-3.8,0-6.9-3.1-6.9-6.9
		c0-3.8,3.1-6.9,6.9-6.9s6.9,3.1,6.9,6.9C193.4,259.1,190.3,262.2,186.5,262.2z M350.3,264.2c-3.8,0-6.9-3.1-6.9-6.9
		c0-3.8,3.1-6.9,6.9-6.9s6.9,3.1,6.9,6.9C357.1,261.1,354.1,264.2,350.3,264.2z M382.8,294.3c-5.5,0-9.9-4.4-9.9-9.9
		c0-5.5,4.4-9.9,9.9-9.9s9.9,4.4,9.9,9.9C392.7,289.9,388.3,294.3,382.8,294.3z"/>
	<circle cx="159.8" cy="285.7" r="9.9"/>
	<ellipse transform="matrix(0.3827 -0.9239 0.9239 0.3827 -120.6904 329.9126)" cx="186.5" cy="255.3" rx="6.9" ry="6.9"/>
	<circle cx="382.8" cy="284.4" r="9.9"/>
	<circle cx="350.3" cy="257.3" r="6.9"/>
</g>
<rect x="28.5" y="18.4" class="st2" width="499.8" height="187.8"/>
<rect x="111.9" y="86.1" class="st3" width="322.5" height="95.1"/>
<circle class="st4" cx="169.6" cy="133.7" r="36.8"/>
<rect x="165.7" y="155.8" class="st5" width="8.1" height="12.6"/>
<rect x="165.8" y="98.8" class="st5" width="8.1" height="12.6"/>
<rect x="137.3" y="124.9" transform="matrix(-1.836970e-16 1 -1 -1.836970e-16 272.578 -10.2095)" class="st5" width="8.1" height="12.6"/>
<rect x="194" y="125.1" transform="matrix(-1.836970e-16 1 -1 -1.836970e-16 329.471 -66.57)" class="st5" width="8.1" height="12.6"/>
<rect x="185.5" y="107.1" transform="matrix(0.7071 0.7071 -0.7071 0.7071 135.7384 -100.8357)" class="st5" width="8.1" height="12.6"/>
<rect x="146.1" y="106.5" transform="matrix(0.7071 -0.7071 0.7071 0.7071 -35.783 139.2355)" class="st5" width="8.1" height="12.6"/>
<rect x="186" y="147.7" transform="matrix(0.7071 -0.7071 0.7071 0.7071 -53.2315 179.4772)" class="st5" width="8.1" height="12.6"/>
<rect x="143.2" y="145.6" transform="matrix(0.7071 0.7071 -0.7071 0.7071 150.5762 -59.6166)" class="st5" width="8.1" height="12.6"/>
<circle class="st4" cx="377" cy="133.9" r="36.8"/>
<rect x="373.1" y="156" class="st5" width="8.1" height="12.6"/>
<rect x="373.2" y="99" class="st5" width="8.1" height="12.6"/>
<rect x="344.8" y="125.1" transform="matrix(-1.836970e-16 1 -1 -1.836970e-16 480.2177 -217.4303)" class="st5" width="8.1" height="12.6"/>
<rect x="401.4" y="125.3" transform="matrix(-1.836970e-16 1 -1 -1.836970e-16 537.1107 -273.7907)" class="st5" width="8.1" height="12.6"/>
<rect x="393" y="107.3" transform="matrix(0.7071 0.7071 -0.7071 0.7071 196.6414 -247.4496)" class="st5" width="8.1" height="12.6"/>
<rect x="353.6" y="106.7" transform="matrix(0.7071 -0.7071 0.7071 0.7071 24.8238 285.9722)" class="st5" width="8.1" height="12.6"/>
<rect x="393.4" y="147.9" transform="matrix(0.7071 -0.7071 0.7071 0.7071 7.3753 326.2139)" class="st5" width="8.1" height="12.6"/>
<rect x="350.6" y="145.9" transform="matrix(0.7071 0.7071 -0.7071 0.7071 211.4793 -206.2305)" class="st5" width="8.1" height="12.6"/>
<rect x="213.9" y="102.7" class="st6" width="117.8" height="65.2"/>
<rect x="28.3" y="39" class="st7" width="499.8" height="17.8"/>
<circle class="st8" cx="12.4" cy="12.3" r="5"/>
<circle class="st8" cx="541.6" cy="13" r="5"/>
<circle class="st8" cx="12.2" cy="292.7" r="5"/>
<circle class="st8" cx="541.9" cy="292.8" r="5"/>
<g>
</g>
<g>
</g>
<g>
</g>
<g>
</g>
<g>
</g>
<g>
</g>
</svg>
