<?xml version="1.0" encoding="utf-8"?>
<!-- Generator: Adobe Illustrator 24.0.2, SVG Export Plug-In . SVG Version: 6.00 Build 0)  -->
<svg version="1.1" id="Layer_1" xmlns="http://www.w3.org/2000/svg" xmlns:xlink="http://www.w3.org/1999/xlink" x="0px" y="0px"
	 viewBox="0 0 334.7 335.3" style="enable-background:new 0 0 334.7 335.3;" xml:space="preserve">
<style type="text/css">
	.st0{fill:url(#SVGID_1_);}
	.st1{fill:url(#SVGID_2_);}
	.st2{fill:#333333;stroke:#333333;stroke-miterlimit:10;}
	.st3{fill:url(#SVGID_3_);stroke:#333333;stroke-miterlimit:10;}
	.st4{fill:#939598;stroke:#333333;stroke-miterlimit:10;}
	.st5{fill:#414042;stroke:#333333;stroke-width:1.4148;stroke-miterlimit:10;}
	.st6{fill:url(#SVGID_4_);}
	.st7{fill:url(#SVGID_5_);}
	.st8{fill:none;stroke:#000000;stroke-width:0.4735;stroke-miterlimit:10;}
</style>
<linearGradient id="SVGID_1_" gradientUnits="userSpaceOnUse" x1="277.8737" y1="56.8632" x2="67.1752" y2="267.5616">
	<stop  offset="0.3371" style="stop-color:#D1D3D4"/>
	<stop  offset="0.5254" style="stop-color:#FFFFFF"/>
	<stop  offset="0.8427" style="stop-color:#D1D3D4"/>
</linearGradient>
<circle class="st0" cx="168.6" cy="166.2" r="163.8"/>
<linearGradient id="SVGID_2_" gradientUnits="userSpaceOnUse" x1="274.2528" y1="59.8313" x2="69.904" y2="264.1801">
	<stop  offset="0.3371" style="stop-color:#000000;stop-opacity:0.5"/>
	<stop  offset="0.5254" style="stop-color:#000000;stop-opacity:4.000000e-02"/>
	<stop  offset="0.8427" style="stop-color:#000000;stop-opacity:0.5"/>
</linearGradient>
<circle class="st1" cx="168.2" cy="165.9" r="158.9"/>
<ellipse transform="matrix(0.1891 -0.982 0.982 0.1891 -26.452 299.6836)" class="st2" cx="168.2" cy="165.9" rx="137.3" ry="137.3"/>
<radialGradient id="SVGID_3_" cx="168.2264" cy="165.8578" r="128.2789" gradientUnits="userSpaceOnUse">
	<stop  offset="0" style="stop-color:#FFFFFF"/>
	<stop  offset="0.1036" style="stop-color:#E4E4E6"/>
	<stop  offset="0.5516" style="stop-color:#838588"/>
	<stop  offset="0.8591" style="stop-color:#454546"/>
	<stop  offset="1" style="stop-color:#000000"/>
</radialGradient>
<circle class="st3" cx="168.2" cy="165.9" r="128.3"/>
<ellipse transform="matrix(0.2669 -0.9637 0.9637 0.2669 -36.5189 283.7072)" class="st4" cx="168.2" cy="165.9" rx="106.7" ry="106.7"/>
<path class="st5" d="M167.9,266.8c-55.1,0-100-44.9-100-100s44.9-100,100-100c55.1,0,100,44.9,100,100S223,266.8,167.9,266.8z"/>
<linearGradient id="SVGID_4_" gradientUnits="userSpaceOnUse" x1="213.3949" y1="121.3417" x2="112.4935" y2="222.2431">
	<stop  offset="0" style="stop-color:#808285;stop-opacity:0.84"/>
	<stop  offset="6.435219e-02" style="stop-color:#86888A;stop-opacity:0.8338"/>
	<stop  offset="0.1157" style="stop-color:#8D8F92;stop-opacity:0.8289"/>
	<stop  offset="0.1723" style="stop-color:#95979A;stop-opacity:0.7945"/>
	<stop  offset="0.27" style="stop-color:#ABADB0;stop-opacity:0.7352"/>
	<stop  offset="0.3961" style="stop-color:#D0D2D4;stop-opacity:0.6587"/>
	<stop  offset="0.4927" style="stop-color:#F1F2F2;stop-opacity:0.6"/>
	<stop  offset="0.8391" style="stop-color:#9FA1A4;stop-opacity:0.5454"/>
	<stop  offset="1" style="stop-color:#808285;stop-opacity:0.52"/>
</linearGradient>
<path class="st6" d="M167.9,257.8c-50.2,0-91-40.8-91-91s40.8-91,91-91c50.2,0,91,40.8,91,91S218.1,257.8,167.9,257.8z"/>
<linearGradient id="SVGID_5_" gradientUnits="userSpaceOnUse" x1="213.3949" y1="121.3417" x2="112.4935" y2="222.2431">
	<stop  offset="0" style="stop-color:#808285;stop-opacity:0.84"/>
	<stop  offset="6.435219e-02" style="stop-color:#86888A;stop-opacity:0.8338"/>
	<stop  offset="0.1157" style="stop-color:#8D8F92;stop-opacity:0.8289"/>
	<stop  offset="0.1723" style="stop-color:#95979A;stop-opacity:0.7945"/>
	<stop  offset="0.27" style="stop-color:#ABADB0;stop-opacity:0.7352"/>
	<stop  offset="0.3961" style="stop-color:#D0D2D4;stop-opacity:0.6587"/>
	<stop  offset="0.4927" style="stop-color:#F1F2F2;stop-opacity:0.6"/>
	<stop  offset="0.8391" style="stop-color:#9FA1A4;stop-opacity:0.5454"/>
	<stop  offset="1" style="stop-color:#808285;stop-opacity:0.52"/>
</linearGradient>
<path class="st7" d="M167.9,75.8c-50.2,0-91,40.8-91,91s40.8,91,91,91c50.2,0,91-40.8,91-91S218.1,75.8,167.9,75.8z"/>
<g>
	<path class="st8" d="M270.5,272.8c-68.8,0-136.8-0.4-205.3,0c0-69.5,0.3-138.2,0-207.4c68.8,0,136.8,0.4,205.3,0
		C270.5,134.9,270.2,203.7,270.5,272.8z M67.9,269.4c66.6-4.6,128.6,0.1,199.9,0.2c-3.7-66.9,0.1-130,0.2-200.8
		c-66.6,4.6-128.6-0.1-199.9-0.2C71.8,135.5,67.9,198.6,67.9,269.4z"/>
	<path class="st8" d="M269.1,270.3c-71.4,0-135-4-202.6-0.1c0-1.1,0-2.2,0-3.3c67.7-8,127,0.3,202.5,0.2
		C269.1,268.1,269.1,269.2,269.1,270.3z"/>
	<path class="st8" d="M269.1,267.7c-74.7,0.1-134.9-7.4-202.5-0.2c0-1.1,0-2.2,0-3.3c67.9-11.2,123.8,0.6,202.4,0.3
		C269,265.6,269,266.7,269.1,267.7z"/>
	<path class="st8" d="M269,265.2c-77.8,0.2-134.6-10.6-202.4-0.2c0-1.1,0-2.2,0-3.3c68.1-14.1,120.8,0.9,202.3,0.3
		C268.9,263.1,269,264.2,269,265.2z"/>
	<path class="st8" d="M268.9,262.7c-80.8,0.5-134.3-13.7-202.3-0.3c0-1.1,0-2.2,0-3.3c68.5-16.9,118,1.3,202.2,0.4
		C268.9,260.6,268.9,261.7,268.9,262.7z"/>
	<path class="st8" d="M268.9,260.2c-83.6,0.8-133.9-16.6-202.3-0.4c0-1.1,0-2.2,0-3.3c68.9-19.6,115.3,1.8,202.2,0.5
		C268.8,258.1,268.8,259.1,268.9,260.2z"/>
	<path class="st8" d="M268.8,257.7c-86.2,1.2-133.4-19.3-202.2-0.5c0-1.1,0-2.2,0-3.3c69.4-22,112.8,2.4,202.1,0.6
		C268.7,255.6,268.8,256.6,268.8,257.7z"/>
	<path class="st8" d="M268.7,255.2c-88.7,1.7-132.9-21.9-202.1-0.5c0-1.1,0-2.2,0-3.2c69.9-24.4,110.4,3,202,0.6
		C268.7,253.1,268.7,254.1,268.7,255.2z"/>
	<path class="st8" d="M268.7,252.7c-91.1,2.2-132.3-24.4-202.1-0.6c0-1.1,0-2.2,0-3.2c70.5-26.5,108.2,3.7,202,0.7
		C268.6,250.6,268.7,251.6,268.7,252.7z"/>
	<path class="st8" d="M268.6,250.2c-93.3,2.8-131.6-26.7-202-0.7c0-1.1,0-2.2,0-3.2c71.2-28.6,106.1,4.4,201.9,0.7
		C268.6,248.1,268.6,249.1,268.6,250.2z"/>
	<path class="st8" d="M268.6,247.7c-95.3,3.5-130.9-28.8-201.9-0.7c0-1.1,0-2.2,0-3.2c71.9-30.5,104.2,5.2,201.9,0.8
		C268.5,245.6,268.6,246.6,268.6,247.7z"/>
	<path class="st8" d="M268.5,245.2c-97.2,4.2-130.1-30.8-201.9-0.8c0-1.1,0-2.2,0-3.2c72.7-32.2,102.4,6.1,201.8,0.9
		C268.5,243,268.5,244.1,268.5,245.2z"/>
	<path class="st8" d="M268.5,242.7c-99,5-129.3-32.6-201.8-0.9c0-1.1,0-2.2,0-3.2c73.5-33.8,100.7,7,201.7,0.9
		C268.5,240.5,268.5,241.6,268.5,242.7z"/>
	<path class="st8" d="M268.5,240.1C167.8,246,140,205.8,66.7,239.2c0-1.1,0-2.1,0-3.2c74.4-35.3,99.2,7.9,201.7,1
		C268.4,238,268.4,239.1,268.5,240.1z"/>
	<path class="st8" d="M268.4,237.6c-102.1,6.7-127.5-35.9-201.7-1c0-1.1,0-2.1,0-3.2c75.3-36.6,97.8,8.9,201.6,1
		C268.4,235.5,268.4,236.6,268.4,237.6z"/>
	<path class="st8" d="M268.4,235.1c-103.5,7.6-126.6-37.3-201.7-1c0-1.1,0-2.1,0-3.2c76.3-37.9,96.6,9.9,201.6,1.1
		C268.4,233,268.4,234.1,268.4,235.1z"/>
	<path class="st8" d="M268.4,232.7c-104.7,8.6-125.6-38.6-201.6-1.1c0-1.1,0-2.1,0-3.2c77.3-39,95.4,11,201.5,1.1
		C268.3,230.6,268.4,231.6,268.4,232.7z"/>
	<path class="st8" d="M268.3,230.2c-105.8,9.6-124.5-39.8-201.6-1.1c0-1.1,0-2.1,0-3.2c78.3-39.9,94.4,12.1,201.5,1.2
		C268.3,228.1,268.3,229.1,268.3,230.2z"/>
	<path class="st8" d="M268.3,227.7c-106.8,10.6-123.5-40.9-201.5-1.2c0-1.1,0-2.1,0-3.2c79.4-40.8,93.5,13.2,201.4,1.2
		C268.3,225.6,268.3,226.6,268.3,227.7z"/>
	<path class="st8" d="M268.3,225.2c-107.7,11.7-122.4-41.8-201.5-1.2c0-1.1,0-2.1,0-3.2c80.5-41.5,92.7,14.3,201.4,1.3
		C268.3,223.1,268.3,224.1,268.3,225.2z"/>
	<path class="st8" d="M268.3,222.7c-108.5,12.8-121.2-42.6-201.4-1.3c0-1.1,0-2.1,0-3.2c81.6-42.2,92.1,15.5,201.4,1.3
		C268.3,220.6,268.3,221.6,268.3,222.7z"/>
	<path class="st8" d="M268.3,220.2c-109.1,13.9-120.1-43.3-201.4-1.3c0-1.1,0-2.1,0-3.2c82.7-42.7,91.5,16.7,201.3,1.3
		C268.3,218.1,268.3,219.1,268.3,220.2z"/>
	<path class="st8" d="M268.3,217.7c-109.7,15-118.9-43.9-201.3-1.3c0-1.1,0-2.1,0-3.2c83.9-43.1,91.1,17.9,201.3,1.4
		C268.2,215.6,268.2,216.6,268.3,217.7z"/>
	<path class="st8" d="M268.2,215.2c-110.1,16.2-117.7-44.4-201.3-1.4c0-1.1,0-2.1,0-3.2c85-43.4,90.7,19.1,201.3,1.4
		C268.2,213.1,268.2,214.1,268.2,215.2z"/>
	<path class="st8" d="M268.2,212.7C157.8,230,151.7,167.9,67,211.3c0-1.1,0-2.1,0-3.2c86.2-43.7,90.5,20.3,201.2,1.4
		C268.2,210.6,268.2,211.6,268.2,212.7z"/>
	<path class="st8" d="M268.2,210.2c-110.7,18.5-115.3-45.1-201.2-1.4c0-1.1,0-2.1,0-3.2c87.4-43.8,90.3,21.5,201.2,1.5
		C268.2,208.1,268.2,209.1,268.2,210.2z"/>
	<path class="st8" d="M268.2,207.7c-110.9,19.7-114.1-45.2-201.2-1.5c0-1.1,0-2.1,0-3.2c88.6-43.8,90.2,22.8,201.2,1.5
		C268.2,205.6,268.2,206.7,268.2,207.7z"/>
	<path class="st8" d="M268.2,205.2c-110.9,20.9-112.9-45.3-201.2-1.5c0-1.1,0-2.1,0-3.2c89.8-43.8,90.3,24,201.1,1.5
		C268.2,203.1,268.2,204.2,268.2,205.2z"/>
	<path class="st8" d="M268.2,202.7c-110.9,22.2-111.7-45.3-201.1-1.5c0-1.1,0-2.1,0-3.2c91-43.6,90.4,25.2,201.1,1.6
		C268.2,200.6,268.2,201.7,268.2,202.7z"/>
	<path class="st8" d="M268.2,200.2c-110.8,23.4-110.5-45.2-201.1-1.6c0-1.1,0-2.1,0-3.2c92.2-43.4,90.6,26.4,201.1,1.6
		C268.2,198.1,268.2,199.2,268.2,200.2z"/>
	<path class="st8" d="M268.2,197.7c-110.6,24.6-109.2-45.1-201.1-1.6c0-1.1,0-2.1,0-3.2c93.3-43.1,90.8,27.7,201.1,1.6
		C268.2,195.6,268.2,196.7,268.2,197.7z"/>
	<path class="st8" d="M268.2,195.2c-110.3,25.7-108-44.8-201.1-1.6c0-1.1,0-2.1,0-3.2c94.5-42.8,91.2,28.9,201.1,1.6
		C268.2,193.1,268.2,194.2,268.2,195.2z"/>
	<path class="st8" d="M268.2,192.7c-110,26.9-106.9-44.5-201.1-1.6c0-1.1,0-2.1,0-3.2c95.7-42.3,91.6,30,201,1.6
		C268.3,190.6,268.2,191.7,268.2,192.7z"/>
	<path class="st8" d="M268.3,190.2c-109.6,28.1-105.7-44.1-201-1.6c0-1.1,0-2.1,0-3.2c96.8-41.8,92.1,31.2,201,1.7
		C268.3,188.2,268.3,189.2,268.3,190.2z"/>
	<path class="st8" d="M268.3,187.8c-109.1,29.3-104.5-43.6-201-1.6c0-1.1,0-2.1,0-3.2c97.9-41.2,92.7,32.3,201,1.7
		C268.3,185.7,268.3,186.7,268.3,187.8z"/>
	<path class="st8" d="M268.3,185.3c-108.5,30.4-103.4-43-201-1.7c0-1.1,0-2.1,0-3.2c99-40.6,93.3,33.5,201,1.7
		C268.3,183.2,268.3,184.2,268.3,185.3z"/>
	<path class="st8" d="M268.3,182.8c-107.9,31.5-102.3-42.4-201-1.7c0-1.1,0-2.1,0-3.2c100.1-39.9,94,34.5,201,1.7
		C268.3,180.7,268.3,181.7,268.3,182.8z"/>
	<path class="st8" d="M268.3,180.3c-107.2,32.6-101.2-41.8-201-1.7c0-1.1,0-2.1,0-3.2c101.1-39.1,94.7,35.6,201,1.7
		C268.3,178.2,268.3,179.2,268.3,180.3z"/>
	<path class="st8" d="M268.3,177.8c-106.5,33.6-100.2-41-201-1.7c0-1.1,0-2.1,0-3.2c102.1-38.3,95.5,36.6,201,1.7
		C268.3,175.7,268.3,176.7,268.3,177.8z"/>
	<path class="st8" d="M268.3,175.3c-105.7,34.6-99.1-40.2-201-1.7c0-1.1,0-2.1,0-3.2c103.1-37.5,96.3,37.6,201,1.7
		C268.4,173.2,268.3,174.2,268.3,175.3z"/>
	<path class="st8" d="M268.4,172.8c-104.9,35.6-98.2-39.4-201-1.7c0-1.1,0-2.1,0-3.2c104-36.6,97.2,38.5,201,1.7
		C268.4,170.7,268.4,171.7,268.4,172.8z"/>
	<path class="st8" d="M268.4,170.3c-104,36.6-97.2-38.5-201-1.7c0-1.1,0-2.1,0-3.2c104.9-35.6,98.2,39.4,201,1.7
		C268.4,168.2,268.4,169.2,268.4,170.3z"/>
	<path class="st8" d="M268.4,167.8c-103.1,37.5-96.3-37.6-201-1.7c0-1.1,0-2.1,0-3.1c105.7-34.6,99.1,40.2,201,1.7
		C268.4,165.7,268.4,166.7,268.4,167.8z"/>
	<path class="st8" d="M268.4,165.3c-102.1,38.3-95.5-36.6-201-1.7c0-1,0-2.1,0-3.1c106.5-33.6,100.2,41,201,1.7
		C268.4,163.2,268.4,164.2,268.4,165.3z"/>
	<path class="st8" d="M268.4,162.8c-101.1,39.1-94.7-35.6-201-1.7c0-1,0-2.1,0-3.1c107.2-32.6,101.2,41.8,201,1.7
		C268.5,160.7,268.5,161.7,268.4,162.8z"/>
	<path class="st8" d="M268.5,160.3c-100.1,39.9-94-34.5-201-1.7c0-1,0-2.1,0-3.1c107.9-31.5,102.3,42.4,201,1.7
		C268.5,158.2,268.5,159.2,268.5,160.3z"/>
	<path class="st8" d="M268.5,157.8c-99,40.6-93.3-33.5-201-1.7c0-1,0-2.1,0-3.1c108.5-30.4,103.4,43,201,1.7
		C268.5,155.7,268.5,156.7,268.5,157.8z"/>
	<path class="st8" d="M268.5,155.3c-97.9,41.2-92.7-32.3-201-1.7c0-1,0-2.1,0-3.1c109.1-29.3,104.5,43.6,201,1.6
		C268.5,153.1,268.5,154.2,268.5,155.3z"/>
	<path class="st8" d="M268.5,152.7c-96.8,41.8-92.1-31.2-201-1.7c0-1,0-2.1,0-3.1c109.6-28.1,105.7,44.1,201,1.6
		C268.6,150.6,268.6,151.7,268.5,152.7z"/>
	<path class="st8" d="M268.6,150.2c-95.7,42.3-91.6-30-201-1.6c0-1,0-2.1,0-3.1c110-26.9,106.9,44.5,201.1,1.6
		C268.6,148.1,268.6,149.2,268.6,150.2z"/>
	<path class="st8" d="M268.6,147.7c-94.5,42.8-91.2-28.9-201.1-1.6c0-1,0-2.1,0-3.1c110.3-25.7,108,44.8,201.1,1.6
		C268.6,145.6,268.6,146.7,268.6,147.7z"/>
	<path class="st8" d="M268.6,145.2c-93.3,43.1-90.8-27.7-201.1-1.6c0-1,0-2.1,0-3.1c110.6-24.6,109.2,45.1,201.1,1.6
		C268.6,143.1,268.6,144.2,268.6,145.2z"/>
	<path class="st8" d="M268.7,142.7c-92.2,43.4-90.6-26.4-201.1-1.6c0-1,0-2.1,0-3.1c110.8-23.4,110.5,45.2,201.1,1.6
		C268.7,140.6,268.7,141.6,268.7,142.7z"/>
	<path class="st8" d="M268.7,140.2c-91,43.6-90.4-25.2-201.1-1.6c0-1,0-2.1,0-3.1c110.9-22.2,111.7,45.3,201.1,1.5
		C268.7,138.1,268.7,139.1,268.7,140.2z"/>
	<path class="st8" d="M268.7,137.7c-89.8,43.8-90.3-24-201.1-1.5c0-1,0-2.1,0-3.1c110.9-20.9,112.9,45.3,201.2,1.5
		C268.7,135.6,268.7,136.6,268.7,137.7z"/>
	<path class="st8" d="M268.7,135.1c-88.6,43.8-90.2-22.8-201.2-1.5c0-1,0-2.1,0-3.1c110.9-19.7,114.1,45.2,201.2,1.5
		C268.8,133,268.7,134.1,268.7,135.1z"/>
	<path class="st8" d="M268.8,132.6c-87.4,43.8-90.3-21.5-201.2-1.5c0-1,0-2.1,0-3.1c110.7-18.5,115.3,45.1,201.2,1.4
		C268.8,130.5,268.8,131.6,268.8,132.6z"/>
	<path class="st8" d="M268.8,130.1c-86.2,43.7-90.5-20.3-201.2-1.4c0-1,0-2.1,0-3.1c110.5-17.4,116.5,44.8,201.3,1.4
		C268.8,128,268.8,129,268.8,130.1z"/>
	<path class="st8" d="M268.8,127.6c-85,43.4-90.7-19.1-201.3-1.4c0-1,0-2.1,0-3.1c110.1-16.2,117.7,44.4,201.3,1.4
		C268.8,125.5,268.8,126.5,268.8,127.6z"/>
	<path class="st8" d="M268.8,125c-83.9,43.1-91.1-17.9-201.3-1.4c0-1,0-2.1,0-3.1c109.7-15,118.9,43.9,201.3,1.3
		C268.9,122.9,268.9,124,268.8,125z"/>
	<path class="st8" d="M268.9,122.5c-82.7,42.7-91.5-16.7-201.3-1.3c0-1,0-2.1,0-3.1c109.1-13.9,120.1,43.3,201.4,1.3
		C268.9,120.4,268.9,121.5,268.9,122.5z"/>
	<path class="st8" d="M268.9,120c-81.6,42.2-92.1-15.5-201.4-1.3c0-1,0-2.1,0-3.1c108.5-12.8,121.2,42.6,201.4,1.3
		C268.9,117.9,268.9,118.9,268.9,120z"/>
	<path class="st8" d="M268.9,117.4c-80.5,41.5-92.7-14.3-201.4-1.3c0-1,0-2.1,0-3.1c107.7-11.7,122.4,41.8,201.5,1.2
		C268.9,115.3,268.9,116.4,268.9,117.4z"/>
	<path class="st8" d="M268.9,114.9c-79.4,40.8-93.5-13.2-201.4-1.2c0-1,0-2.1,0-3.1c106.8-10.6,123.5,40.9,201.5,1.2
		C269,112.8,269,113.8,268.9,114.9z"/>
	<path class="st8" d="M269,112.4c-78.3,39.9-94.4-12.1-201.5-1.2c0-1,0-2.1,0-3.1c105.8-9.6,124.5,39.8,201.6,1.1
		C269,110.2,269,111.3,269,112.4z"/>
	<path class="st8" d="M269,109.8c-77.3,39-95.4-11-201.5-1.1c0-1,0-2.1,0-3.1C172.1,97,193,144.2,269,106.6
		C269,107.7,269,108.8,269,109.8z"/>
	<path class="st8" d="M269,107.3c-76.3,37.9-96.6-9.9-201.6-1.1c0-1,0-2.1,0-3.1c103.5-7.6,126.6,37.3,201.7,1
		C269,105.1,269,106.2,269,107.3z"/>
	<path class="st8" d="M269,104.7c-75.3,36.6-97.8-8.9-201.6-1c0-1.1,0-2.1,0-3.2c102.1-6.7,127.5,35.9,201.7,1
		C269.1,102.6,269,103.7,269,104.7z"/>
	<path class="st8" d="M269.1,102.2c-74.4,35.3-99.2-7.9-201.7-1c0-1.1,0-2.1,0-3.2c100.6-5.8,128.4,34.3,201.8,0.9
		C269.1,100,269.1,101.1,269.1,102.2z"/>
	<path class="st8" d="M269.1,99.6c-73.5,33.8-100.7-7-201.7-0.9c0-1.1,0-2.1,0-3.2c99-5,129.3,32.6,201.8,0.9
		C269.1,97.5,269.1,98.6,269.1,99.6z"/>
	<path class="st8" d="M269.1,97.1c-72.7,32.2-102.4-6.1-201.8-0.9c0-1.1,0-2.1-0.1-3.2c97.2-4.2,130.1,30.8,201.9,0.8
		C269.1,94.9,269.1,96,269.1,97.1z"/>
	<path class="st8" d="M269.1,94.5C197.2,125,165,89.3,67.3,93.7c0-1.1,0-2.1-0.1-3.2c95.3-3.5,130.9,28.8,201.9,0.7
		C269.1,92.4,269.1,93.4,269.1,94.5z"/>
	<path class="st8" d="M269.1,91.9c-71.2,28.6-106.1-4.4-201.9-0.7c0-1.1,0-2.1-0.1-3.2c93.3-2.8,131.6,26.7,202,0.7
		C269.1,89.8,269.1,90.9,269.1,91.9z"/>
	<path class="st8" d="M269.2,89.4c-70.5,26.5-108.2-3.7-202-0.7c0-1.1,0-2.1-0.1-3.2c91.1-2.2,132.3,24.4,202.1,0.6
		C269.2,87.2,269.2,88.3,269.2,89.4z"/>
	<path class="st8" d="M269.2,86.8c-69.9,24.4-110.4-3-202-0.6c0-1.1,0-2.1-0.1-3.2c88.7-1.7,132.9,21.9,202.1,0.5
		C269.2,84.6,269.2,85.7,269.2,86.8z"/>
	<path class="st8" d="M269.2,84.2c-69.4,22-112.8-2.4-202.1-0.6c0-1.1,0-2.1-0.1-3.2c86.2-1.2,133.4,19.3,202.2,0.5
		C269.2,82.1,269.2,83.1,269.2,84.2z"/>
	<path class="st8" d="M269.2,81.7c-68.9,19.6-115.3-1.8-202.2-0.5c0-1.1,0-2.1-0.1-3.2c83.6-0.8,133.9,16.6,202.3,0.4
		C269.2,79.5,269.2,80.6,269.2,81.7z"/>
	<path class="st8" d="M269.2,79.1C200.7,96,151.2,77.7,67,78.7c0-1.1-0.1-2.1-0.1-3.2c80.8-0.5,134.3,13.7,202.3,0.3
		C269.2,76.9,269.2,78,269.2,79.1z"/>
	<path class="st8" d="M269.2,76.5c-68.1,14.1-120.8-0.9-202.3-0.3c0-1.1-0.1-2.1-0.1-3.2c77.8-0.2,134.6,10.6,202.4,0.2
		C269.2,74.3,269.2,75.4,269.2,76.5z"/>
	<path class="st8" d="M269.2,73.9c-67.9,11.2-123.8-0.6-202.4-0.3c0-1.1-0.1-2.1-0.1-3.2c74.7-0.1,134.9,7.4,202.5,0.2
		C269.2,71.7,269.2,72.8,269.2,73.9z"/>
	<path class="st8" d="M269.2,71.3c-67.7,8-127-0.3-202.5-0.2c0-1.1-0.1-2.1-0.1-3.2c71.4,0,135,4,202.6,0.1
		C269.2,69.1,269.2,70.2,269.2,71.3z"/>
	<path class="st8" d="M267.9,271.2c-0.9,0-1.8,0-2.7,0c-7.2-68.1,0.3-128.7,0.2-204c0.9,0,1.7-0.1,2.6-0.1
		C268,139,264.1,203.1,267.9,271.2z"/>
	<path class="st8" d="M265.3,271.2c-0.9,0-1.8,0-2.7,0c-10.3-68.3,0.5-125.4,0.3-203.9c0.9,0,1.7-0.1,2.6-0.1
		C265.6,142.4,258.3,203.1,265.3,271.2z"/>
	<path class="st8" d="M262.7,271.2c-0.9,0-1.8,0-2.7,0c-13.2-68.5,0.8-122.4,0.4-203.8c0.9,0,1.7-0.1,2.6-0.1
		C263.2,145.6,252.6,202.9,262.7,271.2z"/>
	<path class="st8" d="M260.2,271.2c-0.9,0-1.8,0-2.7,0c-16-68.8,1.2-119.5,0.5-203.7c0.9,0,1.7-0.1,2.6-0.1
		C261,148.7,247,202.7,260.2,271.2z"/>
	<path class="st8" d="M257.6,271.2c-0.9,0-1.8,0-2.7,0c-18.7-69.2,1.7-116.7,0.6-203.6c0.9,0,1.7-0.1,2.6-0.1
		C258.8,151.6,241.7,202.3,257.6,271.2z"/>
	<path class="st8" d="M255,271.2c-0.9,0-1.8,0-2.7,0c-21.1-69.7,2.3-114.1,0.6-203.5c0.9,0,1.7,0,2.6-0.1
		C256.7,154.3,236.5,201.9,255,271.2z"/>
	<path class="st8" d="M252.4,271.1c-0.9,0-1.8,0-2.7,0c-23.4-70.2,2.9-111.7,0.7-203.5c0.9,0,1.7,0,2.6-0.1
		C254.7,156.9,231.4,201.5,252.4,271.1z"/>
	<path class="st8" d="M249.9,271.1c-0.9,0-1.8,0-2.7,0c-25.6-70.8,3.5-109.4,0.8-203.4c0.9,0,1.7,0,2.6-0.1
		C252.7,159.3,226.5,200.9,249.9,271.1z"/>
	<path class="st8" d="M247.3,271.1c-0.9,0-1.8,0-2.7,0c-27.6-71.5,4.3-107.3,0.9-203.3c0.9,0,1.7,0,2.6-0.1
		C250.8,161.6,221.8,200.3,247.3,271.1z"/>
	<path class="st8" d="M244.7,271.1c-0.9,0-1.8,0-2.7,0c-29.5-72.2,5-105.4,0.9-203.2c0.9,0,1.7,0,2.6-0.1
		C249,163.7,217.2,199.6,244.7,271.1z"/>
	<path class="st8" d="M242.2,271.1c-0.9,0-1.8,0-2.7,0c-31.3-73,5.9-103.5,1-203.2c0.9,0,1.7,0,2.6-0.1
		C247.2,165.6,212.8,198.9,242.2,271.1z"/>
	<path class="st8" d="M239.6,271c-0.9,0-1.8,0-2.7,0c-32.9-73.8,6.7-101.8,1.1-203.1c0.9,0,1.7,0,2.6,0
		C245.5,167.5,208.5,198.1,239.6,271z"/>
	<path class="st8" d="M237.1,271c-0.9,0-1.8,0-2.6,0c-34.3-74.7,7.7-100.3,1.1-203c0.9,0,1.7,0,2.6,0
		C243.8,169.1,204.3,197.3,237.1,271z"/>
	<path class="st8" d="M234.6,271c-0.9,0-1.8,0-2.6,0c-35.7-75.6,8.6-98.8,1.2-203c0.9,0,1.7,0,2.6,0
		C242.2,170.7,200.3,196.4,234.6,271z"/>
	<path class="st8" d="M232,271c-0.9,0-1.8,0-2.6,0c-36.9-76.5,9.6-97.6,1.3-202.9c0.9,0,1.7,0,2.6,0
		C240.6,172.1,196.4,195.4,232,271z"/>
	<path class="st8" d="M229.5,270.9c-0.9,0-1.8,0-2.6,0c-38-77.5,10.7-96.4,1.3-202.9c0.9,0,1.7,0,2.6,0
		C239.1,173.3,192.6,194.5,229.5,270.9z"/>
	<path class="st8" d="M226.9,270.9c-0.9,0-1.8,0-2.6,0c-39-78.5,11.7-95.3,1.4-202.8c0.9,0,1.7,0,2.6,0
		C237.6,174.5,189,193.4,226.9,270.9z"/>
	<path class="st8" d="M224.4,270.9c-0.9,0-1.8,0-2.6,0c-39.8-79.6,12.8-94.4,1.4-202.7c0.9,0,1.7,0,2.6,0
		C236.1,175.5,185.5,192.4,224.4,270.9z"/>
	<path class="st8" d="M221.9,270.9c-0.9,0-1.8,0-2.6,0c-40.6-80.7,14-93.6,1.5-202.7c0.9,0,1.7,0,2.6,0
		C234.7,176.4,182.1,191.3,221.9,270.9z"/>
	<path class="st8" d="M219.4,270.8c-0.9,0-1.8,0-2.6,0c-41.2-81.8,15.1-92.9,1.5-202.6c0.9,0,1.7,0,2.6,0
		C233.3,177.2,178.8,190.2,219.4,270.8z"/>
	<path class="st8" d="M216.8,270.8c-0.9,0-1.7,0-2.6,0c-41.8-82.9,16.3-92.3,1.6-202.6c0.9,0,1.7,0,2.6,0
		C231.9,177.9,175.6,189,216.8,270.8z"/>
	<path class="st8" d="M214.3,270.8c-0.9,0-1.7,0-2.6,0c-42.2-84.1,17.5-91.9,1.6-202.6c0.9,0,1.7,0,2.6,0
		C230.6,178.4,172.6,187.9,214.3,270.8z"/>
	<path class="st8" d="M211.8,270.7c-0.9,0-1.7,0-2.6,0c-42.5-85.3,18.7-91.5,1.7-202.5c0.9,0,1.7,0,2.6,0
		C229.2,178.9,169.6,186.7,211.8,270.7z"/>
	<path class="st8" d="M209.3,270.7c-0.9,0-1.7,0-2.6,0c-42.8-86.4,19.9-91.2,1.7-202.5c0.9,0,1.7,0,2.6,0
		C227.9,179.2,166.8,185.5,209.3,270.7z"/>
	<path class="st8" d="M206.8,270.7c-0.9,0-1.7,0-2.6,0c-42.9-87.6,21.1-91,1.7-202.4c0.9,0,1.7,0,2.6,0
		C226.6,179.5,164.1,184.3,206.8,270.7z"/>
	<path class="st8" d="M204.3,270.6c-0.9,0-1.7,0-2.6,0c-42.9-88.8,22.3-91,1.8-202.4c0.9,0,1.7,0,2.6,0
		C225.3,179.6,161.4,183.1,204.3,270.6z"/>
	<path class="st8" d="M201.8,270.6c-0.9,0-1.7,0-2.6,0c-42.9-90,23.5-91,1.8-202.4c0.9,0,1.7,0,2.6,0
		C224.1,179.7,158.9,181.8,201.8,270.6z"/>
	<path class="st8" d="M199.3,270.6c-0.9,0-1.7,0-2.6,0c-42.8-91.2,24.7-91.1,1.8-202.3c0.9,0,1.7,0,2.6,0
		C222.8,179.6,156.4,180.6,199.3,270.6z"/>
	<path class="st8" d="M196.8,270.5c-0.9,0-1.7,0-2.6,0c-42.6-92.4,26-91.2,1.9-202.3c0.9,0,1.7,0,2.6,0
		C221.5,179.5,154,179.4,196.8,270.5z"/>
	<path class="st8" d="M194.3,270.5c-0.9,0-1.7,0-2.6,0c-42.3-93.6,27.2-91.5,1.9-202.3c0.9,0,1.7,0,2.6,0
		C220.2,179.3,151.7,178.1,194.3,270.5z"/>
	<path class="st8" d="M191.8,270.5c-0.9,0-1.7,0-2.6,0c-41.9-94.8,28.3-91.8,1.9-202.3c0.9,0,1.7,0,2.6,0
		C218.9,179,149.5,176.9,191.8,270.5z"/>
	<path class="st8" d="M189.3,270.4c-0.9,0-1.7,0-2.6,0c-41.5-95.9,29.5-92.3,1.9-202.2c0.9,0,1.7,0,2.6,0
		C217.6,178.6,147.4,175.7,189.3,270.4z"/>
	<path class="st8" d="M186.8,270.4c-0.9,0-1.7,0-2.6,0c-41-97.1,30.7-92.7,1.9-202.2c0.9,0,1.7,0,2.6,0
		C216.3,178.2,145.3,174.5,186.8,270.4z"/>
	<path class="st8" d="M184.3,270.4c-0.9,0-1.7,0-2.6,0c-40.4-98.2,31.8-93.3,2-202.2c0.9,0,1.7,0,2.6,0
		C214.9,177.7,143.3,173.3,184.3,270.4z"/>
	<path class="st8" d="M181.8,270.4c-0.9,0-1.7,0-2.6,0c-39.8-99.3,32.9-93.9,2-202.2c0.9,0,1.7,0,2.6,0
		C213.6,177.1,141.4,172.2,181.8,270.4z"/>
	<path class="st8" d="M179.4,270.3c-0.9,0-1.7,0-2.6,0c-39.1-100.4,34-94.6,2-202.2c0.9,0,1.7,0,2.6,0
		C212.2,176.4,139.5,171.1,179.4,270.3z"/>
	<path class="st8" d="M176.9,270.3c-0.9,0-1.7,0-2.6,0c-38.4-101.4,35-95.3,2-202.2c0.9,0,1.7,0,2.6,0
		C210.8,175.7,137.7,170,176.9,270.3z"/>
	<path class="st8" d="M174.4,270.3c-0.9,0-1.7,0-2.6,0c-37.6-102.4,36-96.1,2-202.2c0.9,0,1.7,0,2.6,0
		C209.4,175,136,168.9,174.4,270.3z"/>
	<path class="st8" d="M171.9,270.2c-0.9,0-1.7,0-2.6,0c-36.8-103.4,37-97,2-202.2c0.9,0,1.7,0,2.6,0
		C207.9,174.2,134.3,167.8,171.9,270.2z"/>
	<path class="st8" d="M169.4,270.2c-0.9,0-1.7,0-2.6,0c-35.9-104.3,37.9-97.9,2-202.2c0.9,0,1.7,0,2.6,0
		C206.4,173.3,132.6,166.8,169.4,270.2z"/>
	<path class="st8" d="M166.9,270.2c-0.9,0-1.7,0-2.6,0c-34.9-105.2,38.8-98.8,2-202.2c0.9,0,1.7,0,2.6,0
		C204.8,172.4,131,165.9,166.9,270.2z"/>
	<path class="st8" d="M164.5,270.2c-0.9,0-1.7,0-2.6,0c-34-106.1,39.6-99.8,2-202.2c0.9,0,1.7,0,2.6,0
		C203.2,171.4,129.5,165,164.5,270.2z"/>
	<path class="st8" d="M162,270.1c-0.9,0-1.7,0-2.6,0c-33-106.9,40.4-100.8,2-202.2c0.9,0,1.7,0,2.6,0
		C201.6,170.4,128,164.1,162,270.1z"/>
	<path class="st8" d="M159.5,270.1c-0.9,0-1.7,0-2.6,0c-31.9-107.6,41.1-101.8,2-202.2c0.9,0,1.7,0,2.6,0
		C199.9,169.4,126.5,163.3,159.5,270.1z"/>
	<path class="st8" d="M157,270.1c-0.9,0-1.7,0-2.6,0c-30.9-108.3,41.8-102.9,2-202.2c0.9,0,1.7,0,2.6,0
		C198.2,168.3,125.1,162.5,157,270.1z"/>
	<path class="st8" d="M154.6,270.1c-0.9,0-1.7,0-2.6,0c-29.8-108.9,42.4-104,2-202.2c0.9,0,1.7,0,2.6,0
		C196.4,167.2,123.6,161.8,154.6,270.1z"/>
	<path class="st8" d="M152.1,270.1c-0.9,0-1.7,0-2.6,0c-28.7-109.5,43-105.2,1.9-202.2c0.9,0,1.7,0,2.6,0
		C194.5,166.1,122.3,161.1,152.1,270.1z"/>
	<path class="st8" d="M149.6,270c-0.9,0-1.7,0-2.6,0c-27.5-110,43.4-106.4,1.9-202.2c0.9,0,1.7,0,2.6,0
		C192.6,164.9,120.9,160.6,149.6,270z"/>
	<path class="st8" d="M147.2,270c-0.9,0-1.7,0-2.6,0c-26.4-110.4,43.8-107.5,1.9-202.3c0.9,0,1.7,0,2.6,0
		C190.6,163.7,119.6,160,147.2,270z"/>
	<path class="st8" d="M144.7,270c-0.9,0-1.7,0-2.6,0c-25.2-110.8,44.2-108.7,1.9-202.3c0.9,0,1.7,0,2.6,0
		C188.5,162.5,118.2,159.6,144.7,270z"/>
	<path class="st8" d="M142.2,270c-0.9,0-1.7,0-2.6,0c-24.1-111.1,44.4-109.9,1.8-202.3c0.9,0,1.7,0,2.6,0
		C186.4,161.3,116.9,159.2,142.2,270z"/>
	<path class="st8" d="M139.8,270c-0.9,0-1.7,0-2.6,0c-22.9-111.3,44.6-111.2,1.8-202.3c0.9,0,1.7,0,2.6,0
		C184.2,160.1,115.6,158.9,139.8,270z"/>
	<path class="st8" d="M137.3,270c-0.9,0-1.7,0-2.6,0c-21.7-111.4,44.7-112.4,1.8-202.4c0.9,0,1.7,0,2.6,0
		C181.9,158.9,114.4,158.7,137.3,270z"/>
	<path class="st8" d="M134.8,270c-0.9,0-1.7,0-2.6,0c-20.5-111.4,44.7-113.6,1.8-202.4c0.9,0,1.7,0,2.6,0
		C179.5,157.7,113.1,158.6,134.8,270z"/>
	<path class="st8" d="M132.3,270c-0.9,0-1.7,0-2.6,0c-19.3-111.4,44.6-114.9,1.7-202.4c0.9,0,1.7,0,2.6,0
		C177,156.4,111.8,158.5,132.3,270z"/>
	<path class="st8" d="M129.9,270c-0.9,0-1.7,0-2.6,0c-18.1-111.3,44.4-116.1,1.7-202.5c0.9,0,1.7,0,2.6,0
		C174.5,155.2,110.5,158.6,129.9,270z"/>
	<path class="st8" d="M127.4,270c-0.9,0-1.7,0-2.6,0c-17-111,44.2-117.3,1.7-202.5c0.9,0,1.7,0,2.6,0
		C171.8,154,109.2,158.7,127.4,270z"/>
	<path class="st8" d="M124.9,270c-0.9,0-1.7,0-2.6,0c-15.8-110.7,43.8-118.5,1.6-202.6c0.9,0,1.7,0,2.6,0
		C169.1,152.8,107.9,159,124.9,270z"/>
	<path class="st8" d="M122.5,270c-0.9,0-1.7,0-2.6,0c-14.7-110.2,43.3-119.7,1.6-202.6c0.9,0,1.7,0,2.6,0
		C166.3,151.6,106.6,159.3,122.5,270z"/>
	<path class="st8" d="M120,270c-0.9,0-1.7,0-2.6,0c-13.6-109.7,42.7-120.9,1.5-202.6c0.9,0,1.7,0,2.6,0
		C163.3,150.4,105.3,159.8,120,270z"/>
	<path class="st8" d="M117.5,270c-0.9,0-1.7,0-2.6,0c-12.5-109,42-122,1.5-202.7c0.9,0,1.8,0,2.6,0
		C160.3,149.2,103.9,160.3,117.5,270z"/>
	<path class="st8" d="M115.1,270.1c-0.9,0-1.7,0-2.6,0c-11.4-108.3,41.2-123.2,1.4-202.7c0.9,0,1.8,0,2.6,0
		C157.1,148.1,102.6,161,115.1,270.1z"/>
	<path class="st8" d="M112.6,270.1c-0.9,0-1.7,0-2.6,0c-10.3-107.4,40.3-124.3,1.4-202.8c0.9,0,1.8,0,2.6,0
		C153.8,146.9,101.2,161.8,112.6,270.1z"/>
	<path class="st8" d="M110.1,270.1c-0.9,0-1.7,0-2.6,0c-9.3-106.4,39.3-125.4,1.3-202.9c0.9,0,1.8,0,2.6,0
		C150.5,145.9,99.7,162.7,110.1,270.1z"/>
	<path class="st8" d="M107.6,270.1c-0.9,0-1.7,0-2.6,0c-8.3-105.3,38.1-126.4,1.3-202.9c0.9,0,1.8,0,2.6,0
		C147,144.8,98.3,163.7,107.6,270.1z"/>
	<path class="st8" d="M105.2,270.2c-0.9,0-1.7,0-2.6,0c-7.4-104.1,36.8-127.4,1.2-203c0.9,0,1.8,0,2.6,0
		C143.3,143.8,96.8,164.8,105.2,270.2z"/>
	<path class="st8" d="M102.7,270.2c-0.9,0-1.7,0-2.6,0c-6.5-102.7,35.4-128.4,1.1-203c0.9,0,1.8,0,2.6,0
		C139.6,142.8,95.2,166.1,102.7,270.2z"/>
	<path class="st8" d="M100.2,270.2c-0.9,0-1.7,0-2.6,0C92,169.1,131.5,140.9,98.7,67.2c0.9,0,1.8,0,2.6,0
		C135.7,141.9,93.7,167.5,100.2,270.2z"/>
	<path class="st8" d="M97.7,270.3c-0.9,0-1.7,0-2.6,0c-4.8-99.6,32.2-130.2,1-203.2c0.9,0,1.8,0,2.7,0
		C131.7,141,92.1,169,97.7,270.3z"/>
	<path class="st8" d="M95.2,270.3c-0.9,0-1.7,0-2.6,0.1c-4.1-97.8,30.4-131.1,0.9-203.2c0.9,0,1.8,0,2.7,0
		C127.5,140.1,90.4,170.7,95.2,270.3z"/>
	<path class="st8" d="M92.8,270.4c-0.9,0-1.7,0-2.6,0.1c-3.4-95.9,28.4-131.9,0.9-203.3c0.9,0,1.8,0,2.7,0
		C123.2,139.3,88.7,172.5,92.8,270.4z"/>
	<path class="st8" d="M90.3,270.4c-0.9,0-1.7,0-2.6,0.1C85,176.6,114,137.9,88.5,67.1c0.9,0,1.8,0,2.7,0
		C118.8,138.6,86.9,174.4,90.3,270.4z"/>
	<path class="st8" d="M87.8,270.5c-0.9,0-1.7,0-2.6,0.1c-2.1-91.6,24.1-133.3,0.7-203.5c0.9,0,1.8,0,2.7,0
		C114.2,137.9,85.1,176.5,87.8,270.5z"/>
	<path class="st8" d="M85.3,270.5c-0.9,0-1.7,0-2.6,0.1c-1.6-89.3,21.6-133.9,0.6-203.5c0.9,0,1.8,0,2.7,0
		C109.5,137.3,83.2,178.8,85.3,270.5z"/>
	<path class="st8" d="M82.8,270.6c-0.9,0-1.7,0-2.6,0.1C79.1,183.9,99.3,136.3,80.8,67c0.9,0,1.8,0,2.7,0
		C104.6,136.8,81.2,181.2,82.8,270.6z"/>
	<path class="st8" d="M80.3,270.7c-0.9,0-1.7,0-2.6,0.1C77,186.6,94.1,135.9,78.2,67c0.9,0,1.8,0,2.7,0
		C99.5,136.3,79.2,183.8,80.3,270.7z"/>
	<path class="st8" d="M77.9,270.7c-0.9,0-1.7,0.1-2.6,0.1C74.8,189.5,88.8,135.5,75.6,67c0.9,0,1.8,0,2.7,0
		C94.3,135.9,77.1,186.5,77.9,270.7z"/>
	<path class="st8" d="M75.4,270.8c-0.9,0-1.7,0.1-2.6,0.1C72.5,192.6,83.2,135.3,73,67c0.9,0,1.8,0,2.7,0
		C89,135.6,74.9,189.4,75.4,270.8z"/>
	<path class="st8" d="M72.9,270.9c-0.9,0-1.7,0.1-2.6,0.1c-0.1-75.2,7.3-135.9,0.2-204c0.9,0,1.8,0,2.7,0
		C83.5,135.3,72.6,192.4,72.9,270.9z"/>
	<path class="st8" d="M70.4,271c-0.9,0-1.7,0.1-2.6,0.1c0-71.9,3.9-136,0.1-204.1c0.9,0,1.8,0,2.7,0C77.8,135.1,70.3,195.7,70.4,271
		z"/>
</g>
<g>
</g>
<g>
</g>
<g>
</g>
<g>
</g>
<g>
</g>
<g>
</g>
</svg>
